<svg viewBox="0 0 167 196" width="100%" height="100%" fill="none" xmlns="http://www.w3.org/2000/svg">
<rect width="167" height="196" fill="white"/>
<path d="M121.5 95.9167C121.514 101.416 120.229 106.841 117.75 111.75C114.81 117.632 110.291 122.58 104.698 126.039C99.1048 129.497 92.6593 131.331 86.0833 131.333C80.5839 131.348 75.1588 130.063 70.25 127.583L46.5 135.5L54.4167 111.75C51.9372 106.841 50.6523 101.416 50.6667 95.9167C50.6692 89.3407 52.5025 82.8952 55.9613 77.3023C59.4201 71.7094 64.3677 67.1899 70.25 64.25C75.1588 61.7705 80.5839 60.4857 86.0833 60.5H88.1667C96.8515 60.9791 105.054 64.6448 111.205 70.7952C117.355 76.9457 121.021 85.1486 121.5 93.8333V95.9167Z" stroke="#1E1E1E" stroke-width="3" stroke-linecap="round" stroke-linejoin="round"/>
<path d="M102.041 71.6999C101.802 71.3562 101.35 71.2367 100.972 71.4165C96.1963 73.6938 89.2047 78.379 83.9337 87.5614C86.9888 92.2003 89.6369 98.1728 91.0257 105.776C91.2076 98.1779 92.7151 81.7989 101.936 72.8014C102.236 72.51 102.279 72.0436 102.041 71.6999Z" fill="#34C759"/>
<path d="M70.5404 78.2725C70.3977 78.178 70.2349 78.1328 70.0721 78.1328C69.84 78.1328 69.6088 78.2272 69.441 78.4091C69.1576 78.7177 69.1395 79.186 69.3968 79.5156C78.6937 91.4225 76.118 111.973 75.3723 116.703C75.3331 116.952 75.4035 117.204 75.5663 117.395C75.7291 117.584 75.9673 117.695 76.2175 117.695H88.1847C88.4148 117.695 88.6329 117.604 88.7937 117.441C88.9545 117.278 89.0439 117.058 89.0409 116.829C88.7635 93.6857 77.3993 82.7657 70.5404 78.2725Z" fill="#34C759"/>
<path d="M63.2956 99.0241C63.1298 98.9155 62.9087 98.9427 62.774 99.0884C62.6394 99.2351 62.6303 99.4562 62.7529 99.613C67.1617 105.258 65.9407 115.001 65.5859 117.243C65.5668 117.362 65.602 117.47 65.6774 117.562C65.7548 117.652 65.8683 117.694 65.9869 117.694H71.66C71.7675 117.694 71.872 117.66 71.9484 117.584C72.0248 117.507 72.067 117.407 72.066 117.298C71.9353 106.326 66.5487 101.155 63.2956 99.0241Z" fill="#34C759"/>
<path d="M105.185 92.0255C104.998 91.8235 104.696 91.7853 104.465 91.936C99.98 94.8735 92.5523 102.014 92.3694 117.148C92.3663 117.295 92.4287 117.43 92.5312 117.538C92.6367 117.644 92.7784 117.694 92.9301 117.694H100.754C100.919 117.694 101.072 117.632 101.18 117.506C101.284 117.382 101.331 117.223 101.307 117.061C100.819 113.968 99.1348 100.533 105.215 92.746C105.384 92.531 105.371 92.2275 105.185 92.0255Z" fill="#34C759"/>
</svg>
